<svg version="1.1" id="Layer_1" xmlns="http://www.w3.org/2000/svg" xmlns:xlink="http://www.w3.org/1999/xlink" x="0px" y="0px"
	 width="100%" viewBox="0 0 752 752" enable-background="new 0 0 752 752" xml:space="preserve">
	  <g transform="translate(36 45.5)">
<path fill="#00bcd4" opacity="1.000000" stroke="none" 
	d="
M65.175293,450.235168 
	C65.855957,449.466858 66.210304,448.767151 66.767754,448.513092 
	C74.761620,444.869843 74.323997,438.001007 73.685982,430.936462 
	C71.740433,409.393982 69.801949,387.850311 68.007248,366.294922 
	C66.502289,348.219299 65.225189,330.124817 63.807129,312.041840 
	C61.934517,288.162628 59.999344,264.288330 58.138309,240.408234 
	C57.284821,229.456558 56.395069,218.503860 55.824802,207.535873 
	C55.594654,203.109406 54.387783,199.891205 50.690186,196.913193 
	C16.985411,169.767609 9.971900,123.227654 33.934231,87.462120 
	C34.840675,86.109177 36.066402,84.878693 36.081818,82.974380 
	C34.420891,81.211967 32.031521,80.866196 29.927691,79.987694 
	C14.297199,73.460854 5.048109,57.467892 6.872355,40.051304 
	C8.546156,24.071072 21.387642,9.775783 37.377335,7.083592 
	C66.339386,2.207241 84.697815,24.732754 83.316216,44.951225 
	C83.248177,45.946880 83.397202,46.963398 83.271500,47.948032 
	C82.724495,52.232685 84.813103,53.281921 88.592102,52.439610 
	C105.223633,48.732555 121.125076,51.613499 136.244232,58.641354 
	C160.051270,69.707603 175.298386,88.151138 181.296356,113.808823 
	C182.320480,118.189758 184.969254,119.893585 188.426453,121.793221 
	C227.988251,143.531433 267.493835,165.372162 306.985046,187.238602 
	C334.815125,202.648239 362.626312,218.092514 390.368500,233.659332 
	C393.453125,235.390198 395.787476,235.657257 399.035492,233.874969 
	C410.863617,227.384552 424.720367,228.574860 434.132141,236.814896 
	C444.584564,245.966080 447.710968,257.367371 443.654846,270.674438 
	C440.080902,282.399780 427.722198,291.876801 415.680054,292.188904 
	C401.907288,292.545807 389.202454,284.108398 384.970795,271.716797 
	C384.219238,269.515961 383.048737,267.145264 383.278137,264.980835 
	C383.981445,258.345398 379.905304,255.964890 374.920319,253.244095 
	C338.803528,233.531525 302.805786,213.600037 266.821442,193.645737 
	C240.894012,179.268265 215.049316,164.741623 189.153091,150.307800 
	C187.298950,149.274353 185.553177,147.905960 182.698349,147.742950 
	C178.891693,165.057556 170.957138,180.315018 157.919937,192.924988 
	C185.147385,199.632278 192.723221,226.120239 176.006638,246.525299 
	C200.159348,239.568268 222.945816,241.085236 243.862869,254.997696 
	C258.789429,264.925720 269.264038,278.663177 274.177216,295.923248 
	C284.397675,331.828033 269.313019,367.301758 235.929688,384.520630 
	C201.642792,402.205536 162.374390,391.086945 140.861465,362.175842 
	C119.417084,333.356873 119.854469,283.400330 159.473770,255.124466 
	C146.910538,256.159515 136.853119,252.645462 129.493317,243.439026 
	C122.136024,234.235672 121.470978,223.688751 125.469353,211.511917 
	C110.400856,215.597336 96.290848,215.893143 81.870918,212.507492 
	C80.222786,219.639923 82.140564,226.156830 82.591705,232.661484 
	C84.007233,253.070755 85.656113,273.464722 87.342804,293.854004 
	C88.796448,311.426208 90.525307,328.975800 91.949890,346.550201 
	C93.455040,365.118469 94.714920,383.706482 96.138496,402.281525 
	C97.015755,413.728088 98.097786,425.159851 98.872154,436.612854 
	C99.095154,439.911224 100.671028,441.506409 103.450974,442.961182 
	C117.399170,450.260132 123.550507,465.797974 118.431015,480.234009 
	C113.369560,494.506409 98.186554,503.567810 83.603378,501.019592 
	C68.388367,498.360931 57.207809,484.862823 57.827190,469.357208 
	C58.104317,462.419586 60.492970,456.008453 65.175293,450.235168 
M249.624237,300.954651 
	C248.686417,298.819336 247.810760,296.654144 246.801178,294.553314 
	C236.400024,272.909698 207.014618,261.219238 185.073257,269.578674 
	C153.500046,281.607666 141.885010,317.951233 159.939774,345.728180 
	C173.222992,366.164215 203.205933,374.565735 224.404465,363.143219 
	C247.390137,350.757660 257.301544,326.839844 249.624237,300.954651 
z"/>
<path fill="#00bcd4" opacity="1.000000" stroke="none" 
	d="
M241.100189,548.894409 
	C219.933426,526.265503 223.470978,491.667877 241.606583,472.148987 
	C267.836670,443.918274 312.156281,449.554779 331.897034,479.404724 
	C345.243988,499.586609 343.506226,529.110901 328.517029,546.963623 
	C302.646851,577.775940 260.450378,572.442505 241.100189,548.894409 
M265.683228,537.856689 
	C276.926788,545.027893 288.757233,545.906189 300.130646,539.089539 
	C312.678345,531.569031 318.112000,520.138855 315.800110,505.214935 
	C312.569550,484.361053 288.555237,472.000671 269.316162,481.528351 
	C247.234161,492.463898 245.002258,521.977600 265.683228,537.856689 
z"/>
<path fill="#00bcd4" opacity="1.000000" stroke="none" 
	d="
M436.512024,652.521912 
	C453.991272,672.513794 446.552826,703.010132 423.511749,713.860962 
	C399.904877,724.978210 368.161377,710.269836 367.780334,679.658508 
	C367.481384,655.644531 386.790497,637.043762 409.696167,639.115662 
	C420.022156,640.049622 429.352722,643.970825 436.512024,652.521912 
M392.232819,676.709473 
	C392.145538,682.521057 393.579529,687.599243 399.026276,690.723877 
	C405.004089,694.153259 411.654358,693.548157 416.626099,689.136230 
	C421.456726,684.849487 422.890778,678.171082 420.241455,672.299377 
	C417.867432,667.037903 410.765808,662.835510 405.230865,663.416992 
	C398.431427,664.131226 393.655334,668.717773 392.232819,676.709473 
z"/>
<path fill="#00bcd4" opacity="1.000000" stroke="none" 
	d="
M227.787918,430.203369 
	C215.217911,416.318024 221.243576,396.959625 237.747314,391.128082 
	C248.860306,387.201355 262.541534,393.379547 266.641418,404.269348 
	C271.344879,416.762299 265.631683,430.459290 253.994888,435.122345 
	C244.286423,439.012695 235.785385,437.073181 227.787918,430.203369 
z"/>
<path fill="#00bcd4" opacity="1.000000" stroke="none" 
	d="
M336.218719,619.531067 
	C327.025146,620.702881 320.412079,616.974548 317.568451,609.333069 
	C315.191681,602.946228 317.771362,594.508545 323.286346,590.630371 
	C329.489044,586.268616 338.062378,586.480774 343.603851,591.349731 
	C348.187592,595.377136 350.268951,600.695862 348.909912,606.578552 
	C347.419556,613.029480 343.795685,618.099670 336.218719,619.531067 
z"/>
<path fill="#00bcd4" opacity="1.000000" stroke="none" 
	d="
M494.885101,722.687012 
	C501.362122,721.952087 504.974518,723.958557 506.156006,728.638306 
	C507.325806,733.271729 505.303284,737.189819 500.756287,739.098877 
	C496.601532,740.843201 492.286469,739.454285 489.981415,735.630615 
	C487.266022,731.126221 489.037384,726.112549 494.885101,722.687012 
z"/>
<path fill="#00bcd4" opacity="1.000000" stroke="none" 
	d="
M191.313232,324.501068 
	C188.060867,317.006897 189.373032,311.378845 194.999817,307.479919 
	C199.705978,304.218903 206.185120,304.582184 210.273972,308.336365 
	C215.418793,313.060120 215.615524,321.204132 210.705582,326.204773 
	C205.102768,331.911072 197.451660,331.357391 191.313232,324.501068 
z"/>
<path fill="#00bcd4" opacity="1.000000" stroke="none" 
	d="
M277.742157,521.591309 
	C272.362701,517.979858 270.774017,513.167175 272.166687,507.443146 
	C273.326874,502.674561 277.753845,499.260223 282.703583,498.808533 
	C288.012787,498.323975 292.550690,500.825500 294.935242,505.716980 
	C297.238647,510.441986 296.299530,514.856018 293.048981,518.732239 
	C289.381195,523.106018 284.234344,524.047302 277.742157,521.591309 
z"/>
<path fill="#00bcd4" opacity="1.000000" stroke="none" 
	d="
M395.483826,674.935974 
	C399.855469,666.280823 408.716949,663.853088 414.769043,669.315552 
	C419.245239,673.355652 420.255310,679.167480 417.349945,684.165466 
	C414.343353,689.337769 407.679993,691.744873 402.271210,689.612610 
	C396.888763,687.490723 394.249695,682.043823 395.483826,674.935974 
z"/>
</g>
</svg>