<?xml version="1.0" encoding="utf-8"?>
<!-- Generator: Adobe Illustrator 24.0.1, SVG Export Plug-In . SVG Version: 6.00 Build 0)  -->
<svg version="1.1" id="Capa_1" xmlns="http://www.w3.org/2000/svg" xmlns:xlink="http://www.w3.org/1999/xlink" x="0px" y="0px"
	 viewBox="0 0 24 24" style="enable-background:new 0 0 24 24;" xml:space="preserve">
<style type="text/css">
	.st0{fill:#FFFFFF;}
</style>
<g>
	<g>
		<path class="st0" d="M21.2,5.8l-0.3,0.1l-1.8,0.2l-0.5,0.8l-0.4-0.1l-1.4-1.3l-0.2-0.7l-0.3-0.7l-0.9-0.8l-1-0.2l0,0.5l1,1
			l0.5,0.6l-0.6,0.3l-0.5-0.1l-0.7-0.3l0-0.6l-0.9-0.4l-0.3,1.3l-0.9,0.2l0.1,0.7l1.2,0.2l0.2-1.2l1,0.1l0.5,0.3h0.7l0.5,1l1.3,1.3
			l-0.1,0.5l-1.1-0.1l-1.8,0.9l-1.3,1.6l-0.2,0.7h-0.5l-0.9-0.4l-0.9,0.4l0.2,0.9l0.4-0.4l0.7,0l0,0.8l0.5,0.2l0.5,0.6l0.9-0.3
			l1,0.2l1.2,0.3l0.6,0.1l1,1.1l1.9,1.1l-1.2,2.4l-1.3,0.6l-0.5,1.4L14.8,22l-0.2,0.7c4.9-1.2,8.5-5.5,8.5-10.8
			C23.1,9.7,22.4,7.6,21.2,5.8z"/>
		<path class="st0" d="M13.3,17.8l-0.8-1.5l0.7-1.5l-0.7-0.2l-0.8-0.8l-1.8-0.4L9.2,12v0.8H8.9l-1.6-2.2V8.8L6.1,6.9L4.3,7.3H3.1
			L2.4,6.9l0.8-0.6L2.4,6.4C1.5,8,0.9,10,0.9,12c0,6.1,5,11.1,11.1,11.1c0.5,0,0.9,0,1.4-0.1l-0.1-1.3c0,0,0.5-2,0.5-2.1
			C13.8,19.5,13.3,17.8,13.3,17.8z"/>
		<path class="st0" d="M5,4.5l2-0.3l0.9-0.5l1,0.3l1.6-0.1L11.1,3l0.8,0.1l2-0.2l0.5-0.6l0.8-0.5L16.3,2L16.7,2
			c-1.4-0.7-3-1.1-4.7-1.1c-3.4,0-6.5,1.6-8.6,4h0L5,4.5z M12.5,2l1.1-0.6l0.7,0.4l-1.1,0.8l-1,0.1l-0.5-0.3L12.5,2z M9.1,2.1
			l0.5,0.2l0.7-0.2l0.4,0.6L9.1,3.1L8.4,2.7C8.4,2.7,9.1,2.2,9.1,2.1z"/>
	</g>
</g>
</svg>